<?xml version="1.0" encoding="UTF-8"?>
<!DOCTYPE svg PUBLIC "-//W3C//DTD SVG 1.1//EN" "http://www.w3.org/Graphics/SVG/1.1/DTD/svg11.dtd">
<!-- Creator: CorelDRAW (Versión de evaluación) -->
<svg xmlns="http://www.w3.org/2000/svg" xml:space="preserve" width="215.9mm" height="279.4mm" version="1.1" style="shape-rendering:geometricPrecision; text-rendering:geometricPrecision; image-rendering:optimizeQuality; fill-rule:evenodd; clip-rule:evenodd"
viewBox="0 0 21590 27940"
 xmlns:xlink="http://www.w3.org/1999/xlink"
 xmlns:xodm="http://www.corel.com/coreldraw/odm/2003">
 <defs>
  <style type="text/css">
   <![CDATA[
    .fil2 {fill:none}
    .fil0 {fill:black}
    .fil1 {fill:#003399}
    .fil3 {fill:#003399;fill-rule:nonzero}
   ]]>
  </style>
 </defs>
 <g id="Capa_x0020_1">
  <metadata id="CorelCorpID_0Corel-Layer"/>
  <g id="_2383326116480">
   <path class="fil0" d="M1054.14 10296.55c-154.39,-1089.31 125.86,-2618.48 498.72,-3618.12 545.58,-1462.75 1164.15,-2177.57 2059.18,-3124.83 145.14,-153.61 363.2,-320.18 550.55,-473.01 1220.72,-995.83 2817.33,-1607.23 4471.96,-1765.76 324.83,-31.12 687.47,-27.6 1014.9,-18.76l463.01 26.97c1810.77,131.17 3432.54,955.65 4732.62,2048.84 1251.82,1052.63 2612.3,3168.55 2764.32,5540.58 219.9,3431.29 -1430.32,6399.02 -4368.45,8010.95 -2032.05,1114.83 -4694.29,1264.41 -6818.85,443.55 -1105.89,-427.28 -1838.41,-899.16 -2600.62,-1559.66 -361.55,-313.3 -684.4,-642.21 -998.39,-1048.25 -586.29,-758.16 -1162.19,-1770.22 -1432.16,-2728.53 -155,-550.21 -258.69,-1182.91 -336.79,-1733.97zm-2296.57 -211.67c247.09,2926.37 1279.2,5297.37 3342.3,7232.44 405.86,380.68 935.69,817.68 1489.49,1154.95 285.84,174.07 537.99,342.12 842.79,498.79 2016.3,1036.45 4195.74,1427.64 6590.26,1062.19 3255.58,-496.87 6176.19,-2622.58 7688.71,-5543.28 1884.3,-3638.63 1520.81,-7971.8 -898.06,-11228.1 -1169.43,-1574.29 -2665.99,-2700.66 -4472.76,-3461.64 -1210.98,-510.03 -2974.7,-889.91 -4490.69,-781.65 -1413.06,100.91 -2956.11,424.04 -4203.69,1088.11 -263.35,140.18 -579.52,282.99 -867.21,472.71 -274.89,181.27 -533.71,346.29 -777.39,528.96 -1469.64,1101.75 -2748.73,2693.43 -3456.98,4475.21 -472.87,1189.61 -919.01,2935.08 -786.77,4501.31z"/>
   <path class="fil0" d="M18939.08 22138.03c217.87,218.05 409.29,427.09 631.2,638.42 1223.01,1164.75 2553.09,2560.98 3778.62,3771.2 375.85,371.15 736.8,849.33 1505.74,1000.22 777.39,152.56 1460.7,-186.46 1854.87,-579.17 383.52,-382.11 753.82,-1121.94 571.81,-1881.91 -186.78,-779.93 -618.88,-1106.07 -1012.11,-1494.69l-7553.5 -7541.9c-119.69,126.71 -210.46,279.29 -318.12,418.73l-1021.51 1166.33c-736.95,743.56 -1266.42,1036.65 -1586.63,1339.62l3149.63 3163.15z"/>
  </g>
  <g id="_2383326117104">
   <path class="fil1" d="M7445.91 7007.23c-542.44,423.59 -546.86,1344.54 -711.18,2146.53 -150.05,732.28 -853.09,1419.06 -559.92,2203.46 344.24,921.08 1269.39,1271.3 1994.92,1173.51 1346.1,-181.44 923.34,-1431.62 1862.56,-1467.06 480.54,-18.13 1386.28,549.6 2120.93,-729.78 407.26,-709.28 302.56,-1808.97 -372.33,-2223.94 -612.75,-376.75 -980.83,-165.08 -2117.9,-764.74 -614.9,-324.29 -1368.93,-1000.28 -2217.08,-337.98z"/>
   <path class="fil1" d="M3584.14 7331.41c-1052.75,1032.01 842.93,3297.1 1962.45,2238.29 449.35,-424.96 402.75,-1284.41 -128.72,-1903.87 -405.9,-473.1 -1230.94,-925.33 -1833.73,-334.42z"/>
   <path class="fil1" d="M4567.17 4247.24c-240.54,271.47 -318,501.34 -316.46,857.88 5.11,1187.94 1355.99,2256.89 2132.1,1423.62 1076.84,-1156.15 -787.71,-3441.64 -1815.64,-2281.5z"/>
   <path class="fil1" d="M10106.95 4275.14c-1179.96,1225.94 380.99,3576.14 1505.58,2331.7 1082.28,-1197.62 -337.79,-3544.98 -1505.58,-2331.7z"/>
   <path class="fil1" d="M7020.09 3039.61c-1100.08,1096.32 663.34,3416.59 1772.66,2343.45 447.48,-432.88 431.91,-1271.18 6.69,-1905.84 -386.68,-577.14 -1196.92,-1018.04 -1779.35,-437.61z"/>
  </g>
  <ellipse class="fil2" cx="9311.87" cy="9806.99" rx="7978.13" ry="7746.55"/>
  <path class="fil3" d="M5307.34 16550.1l650.56 -1481.94 1566.94 687.88 -76.32 173.85 -1258.75 -552.58 -202.62 461.56 1090.05 478.52 -76.32 173.86 -1090.05 -478.52 -295.3 672.67 -308.19 -135.3zm2059.86 770.58l353.93 -1579.28 328.44 73.61 -353.93 1579.28 -328.44 -73.61zm906.01 207.36l39.72 -1617.96 344.75 8.46 1299.43 1302.64 31.17 -1269.97 322.31 7.91 -39.73 1617.97 -344.74 -8.47 -1299.41 -1302.63 -31.18 1269.96 -322.32 -7.91zm2572.16 -47.14l-505.15 -1537.59 830.28 -272.79c187.37,-61.56 332.78,-101.41 436.34,-119.16 144.7,-24.95 274.63,-26.79 389.65,-5.89 149.92,26.88 273.42,83.07 371.3,169.08 98.44,85.83 169.94,197.56 214.98,334.64 38.34,116.68 51,227.12 38.01,331.32 -13.03,104.2 -43.42,197.07 -90.77,278.06 -47.94,81.17 -105.57,151.66 -174.18,211.48 -67.93,59.99 -155.39,117.28 -261.83,171.68 -107,54.58 -233.21,105.56 -379.07,153.48l-869.56 285.69zm260.52 -285.44l513.88 -168.83c158.77,-52.17 280.24,-102.39 364.33,-151.04 84.1,-48.64 147.2,-98.71 189.77,-150.77 59.3,-73.02 96.81,-157.51 112.06,-252.94 15.28,-95.42 4.13,-201.21 -34.09,-317.53 -52.92,-161.06 -135.1,-271.26 -246.03,-330.79 -110.92,-59.52 -230.39,-84.5 -358.41,-74.97 -92.21,6.9 -233.06,41.68 -422.68,103.98l-505.47 166.06 386.64 1176.83zm2990.76 -1117.85l-1099.46 -1187.67 702.87 -650.67c123.51,-114.32 221.54,-197.9 293.89,-251.01 100.39,-74.96 194.24,-127.44 281.29,-157.72 87.31,-29.99 172.45,-37.96 255.44,-23.94 83.02,14.03 151.54,50.69 206.06,109.58 93.17,100.63 121.96,232.6 85.5,395.73 -35.78,163.01 -185.97,366.72 -449.44,610.63l-477.53 442.06 448.39 484.36 -247.01 228.65zm-330.37 -852.35l481.01 -445.27c159.46,-147.62 254.73,-270.72 286.83,-370.77 31.67,-99.66 15.91,-183.63 -47.83,-252.47 -45.8,-49.48 -104.73,-74 -176.91,-72.88 -72.2,1.11 -145.94,25.75 -220.57,73.79 -47.99,31.59 -128.04,99 -239.41,202.1l-476.23 440.86 393.11 424.64zm2022.06 -816.03l-1392.6 -824.65 933.33 -1576.12 163.37 96.74 -761.83 1286.51 427.91 253.38 713.08 -1204.19 163.37 96.75 -713.08 1204.19 474.57 281.03 792.52 -1338.33 163.37 96.74 -964.01 1627.95zm1286.72 -2818.66l-1389.86 -330.35 -193.35 813.5 -184.73 -43.91 464.54 -1954.44 184.72 43.91 -193.35 813.48 1389.86 330.35 -77.83 327.46zm-252.06 -1353.97l-42.65 -312.96c79.97,-21.06 143.73,-61 191.65,-119.85 47.54,-58.79 82.96,-146.86 106.27,-264.2 22.95,-117.29 28.95,-248.07 17.7,-391.72 -10.01,-127.75 -30.84,-239.24 -62.89,-335.05 -32.07,-95.82 -71.18,-165.61 -117.35,-209.97 -46.18,-44.37 -94.27,-64.87 -143.85,-60.99 -50.31,3.94 -92.46,30.34 -126.8,79.22 -33.97,48.87 -59.56,127.28 -77.18,235.27 -11.22,68.99 -25.75,221.17 -43.23,456.5 -17.46,235.33 -38.17,400.44 -62.43,495.93 -31.11,123.86 -74.44,217.28 -129.55,280.82 -55.06,64.14 -119.97,98.84 -193.97,104.64 -81.88,6.41 -160.99,-24.12 -237.26,-91.01 -76.66,-66.83 -138.62,-168.01 -186.35,-304.66 -47.7,-136.05 -78.21,-289.43 -91.54,-459.56 -14.67,-187.2 -8.46,-354.14 19.02,-500.21 27.11,-146.06 75.18,-260.59 144.28,-343.59 68.7,-82.97 150.34,-130.84 244.53,-144.13l40.94 320.18c-100.44,25.05 -172.87,89.37 -216.9,192.91 -44.42,103.58 -58.81,252.79 -43.59,447.06 15.86,202.52 51.08,348.43 105.65,437.14 54.57,88.72 115.3,130.76 182.15,125.52 57.85,-4.53 102.96,-41.22 135.41,-109.51 32.1,-67.67 57.65,-238.48 75.41,-513.52 18.13,-275.08 37.69,-464.37 59.06,-567.92 31.72,-149.98 77.65,-263.14 138.63,-338.4 60.62,-75.23 134.14,-115.94 220.53,-122.7 86,-6.74 169.37,25.23 251.29,96.41 81.91,71.17 149.5,176.64 202.85,317.58 53.37,140.94 87.07,301.18 101.23,481.92 17.88,228.41 11.47,421.41 -18.89,578.98 -30.32,158.15 -84.72,283.84 -163.48,378.26 -78.34,94.98 -171.28,148.46 -278.69,161.61z"/>
 </g>
</svg>
