<?xml version="1.0" standalone="no"?>
<!DOCTYPE svg PUBLIC "-//W3C//DTD SVG 20010904//EN"
 "http://www.w3.org/TR/2001/REC-SVG-20010904/DTD/svg10.dtd">
<svg version="1.0" xmlns="http://www.w3.org/2000/svg"
 width="1063.000000pt" height="1063.000000pt" viewBox="0 0 1063.000000 1063.000000"
 preserveAspectRatio="xMidYMid meet">

<g transform="translate(0.000000,1063.000000) scale(0.100000,-0.100000)"
fill="#000000" stroke="none">
<path d="M5889 9007 c-81 -30 -175 -114 -247 -220 -50 -72 -177 -307 -230
-423 -79 -172 -95 -227 -90 -313 l3 -73 -40 6 c-350 53 -632 48 -959 -19 -242
-49 -410 -107 -631 -218 -396 -200 -729 -500 -981 -883 -72 -109 -204 -356
-204 -383 0 -8 -6 -11 -17 -6 -70 26 -339 60 -568 71 -474 22 -626 -146 -454
-506 77 -161 199 -325 435 -581 172 -187 290 -293 371 -331 58 -28 62 -31 68
-71 27 -171 107 -438 184 -617 284 -655 885 -1179 1593 -1388 258 -77 498
-107 787 -99 455 12 840 121 1222 347 345 204 669 522 872 855 281 462 413
1015 367 1535 -57 640 -340 1222 -803 1654 l-106 100 39 23 c45 27 76 84 85
158 9 73 -17 228 -81 475 -119 460 -224 695 -368 828 -88 79 -172 107 -247 79z
m116 -348 c116 -32 252 -277 355 -641 46 -163 72 -326 61 -383 -8 -42 -34
-100 -50 -109 -5 -3 -59 27 -119 67 -198 132 -447 250 -667 317 l-120 37 3 34
c13 129 241 549 343 631 38 31 99 57 134 58 11 0 38 -5 60 -11z m-915 -1199
c355 -39 719 -198 1035 -453 306 -247 559 -657 656 -1066 80 -334 61 -741 -52
-1085 -145 -445 -443 -819 -852 -1073 -312 -193 -646 -284 -1037 -284 -331 -1
-584 57 -875 200 -391 193 -687 481 -893 871 -100 190 -151 351 -197 623 -83
494 58 1076 356 1465 223 290 445 475 742 617 348 166 719 228 1117 185z
m-2860 -1135 c80 -8 154 -15 165 -15 44 -1 45 -11 14 -110 -39 -123 -85 -355
-100 -499 -6 -62 -9 -178 -7 -257 3 -79 2 -144 -3 -144 -14 0 -121 104 -238
230 -238 259 -352 451 -353 596 0 71 18 113 64 147 89 65 199 78 458 52z"/>
<path d="M4355 7102 c-163 -79 -196 -307 -70 -496 97 -146 246 -211 359 -156
187 90 194 384 12 565 -92 92 -215 128 -301 87z"/>
<path d="M3780 6824 c-19 -8 -50 -29 -68 -47 -130 -124 -114 -347 37 -509 75
-82 136 -112 227 -113 61 0 76 4 113 28 123 81 154 251 77 414 -86 180 -259
282 -386 227z"/>
<path d="M5128 6826 c-75 -27 -157 -120 -183 -210 -55 -183 41 -415 198 -481
187 -78 376 150 328 397 -19 97 -63 178 -126 237 -76 68 -138 85 -217 57z"/>
<path d="M6400 6287 c-14 -7 -34 -30 -44 -52 -19 -38 -19 -42 -3 -156 18 -117
16 -149 -8 -149 -12 0 -45 57 -45 78 0 25 -42 143 -56 157 -18 18 -75 20 -92
3 -20 -20 -14 -66 24 -177 44 -126 88 -228 112 -256 17 -19 17 -40 9 -300 -5
-196 -5 -285 3 -298 8 -13 7 -23 -5 -40 -9 -12 -46 -87 -82 -167 -110 -245
-115 -258 -103 -279 8 -17 4 -22 -38 -42 -29 -14 -96 -71 -180 -153 -139 -136
-176 -183 -166 -209 3 -9 31 -35 61 -58 30 -22 95 -81 145 -130 49 -49 94 -89
99 -89 44 0 135 92 145 147 5 26 1 40 -19 66 l-25 32 59 63 c32 34 69 82 81
105 28 53 30 133 4 171 -18 28 -18 28 6 21 12 -4 58 -25 100 -46 43 -22 84
-39 91 -39 27 0 57 48 137 213 89 184 101 224 75 250 -19 19 -59 32 -78 24 -7
-2 -34 -55 -61 -116 -45 -105 -49 -110 -69 -100 -12 7 -23 13 -25 14 -2 2 15
43 36 91 22 49 43 98 46 110 9 29 -22 64 -58 67 -29 2 -32 -2 -76 -103 -26
-58 -52 -105 -58 -104 -7 1 -16 2 -21 3 -5 0 11 45 35 99 24 53 44 103 44 110
0 7 -11 24 -24 37 l-23 23 25 19 c21 16 26 29 31 88 l6 70 161 3 162 2 12 31
c17 40 17 127 1 166 -15 38 -52 53 -126 53 -29 0 -86 3 -128 6 l-77 7 0 66 c1
63 2 67 33 86 55 35 60 70 33 250 -22 151 -20 184 9 154 6 -8 31 -70 54 -139
23 -69 49 -135 57 -147 30 -47 114 -18 114 38 0 43 -85 295 -119 355 -44 76
-131 106 -201 71z m-291 -1861 c18 -21 7 -59 -29 -99 l-29 -32 -43 42 -42 43
29 31 c49 51 81 55 114 15z"/>
<path d="M4487 6156 c-58 -21 -114 -62 -146 -107 -41 -56 -66 -138 -100 -330
-29 -165 -33 -179 -126 -389 -55 -122 -59 -204 -17 -294 75 -159 228 -256 406
-256 149 0 233 47 308 175 90 154 125 181 222 171 193 -19 245 -19 293 -1 56
22 130 88 174 156 70 109 89 263 48 394 -17 55 -31 78 -73 120 -58 59 -105 80
-270 120 -133 33 -220 69 -364 152 -167 97 -264 121 -355 89z"/>
<path d="M3522 6065 c-183 -93 -172 -349 22 -533 29 -27 71 -59 95 -71 210
-107 406 52 356 290 -19 91 -55 157 -125 223 -115 110 -244 144 -348 91z"/>
<path d="M3700 4448 c-6 -7 -33 -47 -60 -88 -27 -41 -74 -106 -104 -144 -31
-38 -56 -79 -56 -91 0 -24 60 -85 107 -109 57 -29 86 -21 134 32 l43 48 85
-62 c47 -34 93 -65 104 -68 13 -3 30 5 49 24 38 39 30 53 -71 124 -87 61 -98
73 -83 88 7 7 37 -9 95 -51 88 -64 109 -71 145 -45 12 8 22 12 22 8 0 -19 -44
-150 -79 -237 -46 -113 -44 -124 28 -159 61 -30 136 -36 161 -13 10 9 43 76
72 147 l53 130 3 -68 c2 -38 -2 -116 -7 -173 -12 -113 -9 -125 38 -143 14 -5
52 -9 85 -9 77 -1 107 20 121 85 l10 47 49 -66 c26 -36 57 -70 68 -76 37 -20
178 -23 219 -6 45 18 51 36 74 202 9 66 18 121 20 123 5 5 60 -143 85 -228 28
-92 34 -100 76 -100 45 0 354 115 402 150 55 40 87 109 87 187 0 52 -5 68 -30
104 -17 23 -50 53 -75 67 -41 22 -53 23 -135 19 -92 -5 -310 -60 -387 -97 -31
-15 -38 -15 -50 -3 -15 14 -109 33 -169 33 -58 0 -69 -21 -70 -131 -2 -154 -5
-157 -69 -53 -30 49 -62 106 -72 126 -29 60 -58 73 -165 73 -85 0 -92 1 -97
21 -3 12 -17 29 -32 39 -43 28 -156 67 -180 61 -13 -4 -24 -1 -27 7 -3 7 -51
46 -108 87 -57 40 -124 90 -149 110 -63 52 -120 90 -136 90 -7 0 -18 -6 -24
-12z m1755 -502 c26 -36 27 -106 1 -134 -24 -28 -105 -56 -111 -39 -26 69 -55
164 -55 178 0 13 13 20 53 26 62 11 85 5 112 -31z"/>
<path d="M7055 3887 c-46 -66 -298 -349 -362 -407 -32 -29 -113 -96 -181 -148
l-122 -95 419 -421 c944 -950 1538 -1539 1579 -1566 107 -72 271 -99 387 -65
126 36 228 108 293 204 113 170 116 377 8 545 -28 43 -1962 1986 -1984 1993
-4 2 -20 -16 -37 -40z"/>
</g>
</svg>
